{
  "accessors": [
    {
      "bufferView": 2,
      "componentType": 5126,
      "count": 65532,
      "max": [
        8.011422157287598,
        2.209388256072998,
        3.703009605407715
      ],
      "min": [
        -8.049978256225586,
        -3.6692111492156982,
        -0.9794007539749146
      ],
      "type": "VEC3"
    },
    {
      "bufferView": 2,
      "byteOffset": 786384,
      "componentType": 5126,
      "count": 65532,
      "max": [
        1.0,
        1.0,
        1.0
      ],
      "min": [
        -1.0,
        -1.0,
        -1.0
      ],
      "type": "VEC3"
    },
    {
      "bufferView": 1,
      "componentType": 5126,
      "count": 65532,
      "max": [
        1.000000238418579,
        1.0000001192092896
      ],
      "min": [
        0.0,
        0.0
      ],
      "type": "VEC2"
    },
    {
      "bufferView": 1,
      "byteOffset": 524256,
      "componentType": 5126,
      "count": 65532,
      "max": [
        1.0000001192092896,
        1.0000001192092896
      ],
      "min": [
        0.0,
        0.0
      ],
      "type": "VEC2"
    },
    {
      "bufferView": 0,
      "componentType": 5125,
      "count": 340224,
      "type": "SCALAR"
    },
    {
      "bufferView": 2,
      "byteOffset": 1572768,
      "componentType": 5126,
      "count": 13380,
      "max": [
        4.073329448699951,
        2.209388256072998,
        0.9843732714653015
      ],
      "min": [
        -8.05111312866211,
        -2.814079523086548,
        -0.6778442859649658
      ],
      "type": "VEC3"
    },
    {
      "bufferView": 2,
      "byteOffset": 1733328,
      "componentType": 5126,
      "count": 13380,
      "max": [
        1.0,
        1.0,
        1.0
      ],
      "min": [
        -0.999138355255127,
        -1.0,
        -1.0
      ],
      "type": "VEC3"
    },
    {
      "bufferView": 1,
      "byteOffset": 1048512,
      "componentType": 5126,
      "count": 13380,
      "max": [
        1.0000001192092896,
        1.0000001192092896
      ],
      "min": [
        0.0,
        0.0
      ],
      "type": "VEC2"
    },
    {
      "bufferView": 1,
      "byteOffset": 1155552,
      "componentType": 5126,
      "count": 13380,
      "max": [
        0.0,
        0.0
      ],
      "min": [
        0.0,
        0.0
      ],
      "type": "VEC2"
    },
    {
      "bufferView": 0,
      "byteOffset": 1360896,
      "componentType": 5125,
      "count": 65565,
      "type": "SCALAR"
    },
    {
      "bufferView": 2,
      "byteOffset": 1893888,
      "componentType": 5126,
      "count": 9138,
      "max": [
        0.5007843971252441,
        -3.421800374984741,
        3.8435544967651367
      ],
      "min": [
        -0.5032084584236145,
        -3.8102715015411377,
        3.479203939437866
      ],
      "type": "VEC3"
    },
    {
      "bufferView": 2,
      "byteOffset": 2003544,
      "componentType": 5126,
      "count": 9138,
      "max": [
        1.0,
        0.9999592304229736,
        0.9999468326568604
      ],
      "min": [
        -1.0,
        -0.9999589920043945,
        -0.9999468326568604
      ],
      "type": "VEC3"
    },
    {
      "bufferView": 1,
      "byteOffset": 1262592,
      "componentType": 5126,
      "count": 9138,
      "max": [
        1.000000238418579,
        1.0000001192092896
      ],
      "min": [
        0.0,
        0.0
      ],
      "type": "VEC2"
    },
    {
      "bufferView": 1,
      "byteOffset": 1335696,
      "componentType": 5126,
      "count": 9138,
      "max": [
        0.0,
        0.0
      ],
      "min": [
        0.0,
        0.0
      ],
      "type": "VEC2"
    },
    {
      "bufferView": 0,
      "byteOffset": 1623156,
      "componentType": 5125,
      "count": 47616,
      "type": "SCALAR"
    },
    {
      "bufferView": 2,
      "byteOffset": 2113200,
      "componentType": 5126,
      "count": 29547,
      "max": [
        7.321041107177734,
        5.56951379776001,
        0.8097962737083435
      ],
      "min": [
        -7.321040630340576,
        1.9167585372924805,
        -0.9011808633804321
      ],
      "type": "VEC3"
    },
    {
      "bufferView": 2,
      "byteOffset": 2467764,
      "componentType": 5126,
      "count": 29547,
      "max": [
        0.9990595579147339,
        0.9999496936798096,
        1.0
      ],
      "min": [
        -0.9993941783905029,
        -0.9999496936798096,
        -1.0
      ],
      "type": "VEC3"
    },
    {
      "bufferView": 1,
      "byteOffset": 1408800,
      "componentType": 5126,
      "count": 29547,
      "max": [
        0.8750002384185791,
        1.000000238418579
      ],
      "min": [
        0.1250000149011612,
        0.0
      ],
      "type": "VEC2"
    },
    {
      "bufferView": 1,
      "byteOffset": 1645176,
      "componentType": 5126,
      "count": 29547,
      "max": [
        0.0,
        0.0
      ],
      "min": [
        0.0,
        0.0
      ],
      "type": "VEC2"
    },
    {
      "bufferView": 0,
      "byteOffset": 1813620,
      "componentType": 5125,
      "count": 159744,
      "type": "SCALAR"
    },
    {
      "bufferView": 2,
      "byteOffset": 2822328,
      "componentType": 5126,
      "count": 10756,
      "max": [
        5.398421764373779,
        3.6608691215515137,
        0.692801833152771
      ],
      "min": [
        -5.398420810699463,
        2.2422609329223633,
        -0.49973946809768677
      ],
      "type": "VEC3"
    },
    {
      "bufferView": 2,
      "byteOffset": 2951400,
      "componentType": 5126,
      "count": 10756,
      "max": [
        0.9553715586662292,
        0.9999212026596069,
        0.9999604225158691
      ],
      "min": [
        -0.9723801612854004,
        -0.999921441078186,
        -0.9999604225158691
      ],
      "type": "VEC3"
    },
    {
      "bufferView": 1,
      "byteOffset": 1881552,
      "componentType": 5126,
      "count": 10756,
      "max": [
        0.5810149908065796,
        0.9363327026367188
      ],
      "min": [
        0.41898515820503235,
        0.8136613965034485
      ],
      "type": "VEC2"
    },
    {
      "bufferView": 1,
      "byteOffset": 1967600,
      "componentType": 5126,
      "count": 10756,
      "max": [
        0.0,
        0.0
      ],
      "min": [
        0.0,
        0.0
      ],
      "type": "VEC2"
    },
    {
      "bufferView": 0,
      "byteOffset": 2452596,
      "componentType": 5125,
      "count": 61440,
      "type": "SCALAR"
    }
  ],
  "asset": {
    "extras": {
      "author": "DevianBloom (https://sketchfab.com/DevianBloom)",
      "license": "CC-BY-4.0 (http://creativecommons.org/licenses/by/4.0/)",
      "source": "https://sketchfab.com/3d-models/headphones-with-fox-ears-31a4cd59689e49b283d39b0a93e745ae",
      "title": "Headphones with fox ears"
    },
    "generator": "Sketchfab-12.65.0",
    "version": "2.0"
  },
  "bufferViews": [
    {
      "buffer": 0,
      "byteLength": 2698356,
      "name": "floatBufferViews",
      "target": 34963
    },
    {
      "buffer": 0,
      "byteLength": 2053648,
      "byteOffset": 2698356,
      "byteStride": 8,
      "name": "floatBufferViews",
      "target": 34962
    },
    {
      "buffer": 0,
      "byteLength": 3080472,
      "byteOffset": 4752004,
      "byteStride": 12,
      "name": "floatBufferViews",
      "target": 34962
    }
  ],
  "buffers": [
    {
      "byteLength": 7832476,
      "uri": "scene.bin"
    }
  ],
  "materials": [
    {
      "doubleSided": true,
      "name": "Earpiece",
      "pbrMetallicRoughness": {
        "baseColorFactor": [
          0.0908378,
          0.0908378,
          0.0908378,
          1.0
        ],
        "roughnessFactor": 0.330882
      }
    },
    {
      "doubleSided": true,
      "name": "Earpiece_2",
      "pbrMetallicRoughness": {
        "baseColorFactor": [
          0.0,
          0.0,
          0.0,
          1.0
        ],
        "metallicFactor": 0.0
      }
    },
    {
      "doubleSided": true,
      "name": "ear_1",
      "pbrMetallicRoughness": {
        "baseColorFactor": [
          0.897092,
          0.0637133,
          0.0,
          1.0
        ]
      }
    },
    {
      "doubleSided": true,
      "name": "ear_2",
      "pbrMetallicRoughness": {
        "baseColorFactor": [
          0.8,
          0.8,
          0.8,
          1.0
        ],
        "metallicFactor": 0.0,
        "roughnessFactor": 0.647059
      }
    }
  ],
  "meshes": [
    {
      "name": "Object_0",
      "primitives": [
        {
          "attributes": {
            "NORMAL": 1,
            "POSITION": 0,
            "TEXCOORD_0": 2,
            "TEXCOORD_1": 3
          },
          "indices": 4,
          "material": 0,
          "mode": 4
        }
      ]
    },
    {
      "name": "Object_1",
      "primitives": [
        {
          "attributes": {
            "NORMAL": 6,
            "POSITION": 5,
            "TEXCOORD_0": 7,
            "TEXCOORD_1": 8
          },
          "indices": 9,
          "material": 0,
          "mode": 4
        }
      ]
    },
    {
      "name": "Object_2",
      "primitives": [
        {
          "attributes": {
            "NORMAL": 11,
            "POSITION": 10,
            "TEXCOORD_0": 12,
            "TEXCOORD_1": 13
          },
          "indices": 14,
          "material": 1,
          "mode": 4
        }
      ]
    },
    {
      "name": "Object_3",
      "primitives": [
        {
          "attributes": {
            "NORMAL": 16,
            "POSITION": 15,
            "TEXCOORD_0": 17,
            "TEXCOORD_1": 18
          },
          "indices": 19,
          "material": 2,
          "mode": 4
        }
      ]
    },
    {
      "name": "Object_4",
      "primitives": [
        {
          "attributes": {
            "NORMAL": 21,
            "POSITION": 20,
            "TEXCOORD_0": 22,
            "TEXCOORD_1": 23
          },
          "indices": 24,
          "material": 3,
          "mode": 4
        }
      ]
    }
  ],
  "nodes": [
    {
      "children": [
        1
      ],
      "matrix": [
        1.0,
        0.0,
        0.0,
        0.0,
        0.0,
        2.220446049250313e-16,
        -1.0,
        0.0,
        0.0,
        1.0,
        2.220446049250313e-16,
        0.0,
        0.0,
        0.0,
        0.0,
        1.0
      ],
      "name": "Sketchfab_model"
    },
    {
      "children": [
        2
      ],
      "name": "root"
    },
    {
      "children": [
        3
      ],
      "matrix": [
        1.0,
        0.0,
        0.0,
        0.0,
        0.0,
        2.220446049250313e-16,
        1.0,
        0.0,
        0.0,
        -1.0,
        2.220446049250313e-16,
        0.0,
        0.0,
        0.0,
        0.0,
        1.0
      ],
      "name": "GLTF_SceneRootNode"
    },
    {
      "children": [
        4,
        5,
        6,
        7,
        8
      ],
      "matrix": [
        -0.014996286481618881,
        -0.0,
        -0.0,
        -0.0,
        0.0,
        0.04350055009126663,
        0.0,
        0.0,
        0.0,
        0.0,
        0.04350055009126663,
        0.0,
        0.0,
        0.0,
        0.0,
        1.0
      ],
      "name": "ear_0"
    },
    {
      "mesh": 0,
      "name": "Object_4"
    },
    {
      "mesh": 1,
      "name": "Object_5"
    },
    {
      "mesh": 2,
      "name": "Object_6"
    },
    {
      "mesh": 3,
      "name": "Object_7"
    },
    {
      "mesh": 4,
      "name": "Object_8"
    }
  ],
  "scene": 0,
  "scenes": [
    {
      "name": "Sketchfab_Scene",
      "nodes": [
        0
      ]
    }
  ]
}
