{
  "accessors": [
    {
      "bufferView": 2,
      "componentType": 5126,
      "count": 163,
      "max": [
        2.2233450412750244,
        -11.238921165466309,
        20.068138122558594
      ],
      "min": [
        -2.2233450412750244,
        -12.267719268798828,
        17.29859161376953
      ],
      "type": "VEC3"
    },
    {
      "bufferView": 2,
      "byteOffset": 1956,
      "componentType": 5126,
      "count": 163,
      "max": [
        0.8302164077758789,
        0.9950675368309021,
        0.38503125309944153
      ],
      "min": [
        -0.830216109752655,
        -0.9950830936431885,
        -0.970461905002594
      ],
      "type": "VEC3"
    },
    {
      "bufferView": 0,
      "componentType": 5125,
      "count": 660,
      "type": "SCALAR"
    },
    {
      "bufferView": 2,
      "byteOffset": 3912,
      "componentType": 5126,
      "count": 2509,
      "max": [
        6.621118068695068,
        4.162705898284912,
        29.406219482421875
      ],
      "min": [
        -6.621118068695068,
        -12.039043426513672,
        15.578758239746094
      ],
      "type": "VEC3"
    },
    {
      "bufferView": 2,
      "byteOffset": 34020,
      "componentType": 5126,
      "count": 2509,
      "max": [
        0.9998458623886108,
        0.9980874061584473,
        0.9898619055747986
      ],
      "min": [
        -0.9998458623886108,
        -0.9979093670845032,
        -0.9607141017913818
      ],
      "type": "VEC3"
    },
    {
      "bufferView": 1,
      "componentType": 5126,
      "count": 2509,
      "max": [
        5.439579010009766,
        2.2907180786132813
      ],
      "min": [
        -5.395514011383057,
        -0.7923280000686646
      ],
      "type": "VEC2"
    },
    {
      "bufferView": 0,
      "byteOffset": 2640,
      "componentType": 5125,
      "count": 5388,
      "type": "SCALAR"
    }
  ],
  "asset": {
    "extras": {
      "author": "Lukanda777 (https://sketchfab.com/Lukanda777)",
      "license": "CC-BY-4.0 (http://creativecommons.org/licenses/by/4.0/)",
      "source": "https://sketchfab.com/3d-models/lk21-fashion-maskframe-b7f7c8e7c7d743f2bcd467efca0a8410",
      "title": "LK21 Fashion MaskFrame"
    },
    "generator": "Sketchfab-16.13.0",
    "version": "2.0"
  },
  "bufferViews": [
    {
      "buffer": 0,
      "byteLength": 24192,
      "name": "floatBufferViews",
      "target": 34963
    },
    {
      "buffer": 0,
      "byteLength": 20072,
      "byteOffset": 24192,
      "byteStride": 8,
      "name": "floatBufferViews",
      "target": 34962
    },
    {
      "buffer": 0,
      "byteLength": 64128,
      "byteOffset": 44264,
      "byteStride": 12,
      "name": "floatBufferViews",
      "target": 34962
    }
  ],
  "buffers": [
    {
      "byteLength": 108392,
      "uri": "scene.bin"
    }
  ],
  "extensionsRequired": [
    "KHR_materials_pbrSpecularGlossiness"
  ],
  "extensionsUsed": [
    "KHR_materials_pbrSpecularGlossiness"
  ],
  "materials": [
    {
      "doubleSided": true,
      "extensions": {
        "KHR_materials_pbrSpecularGlossiness": {
          "diffuseFactor": [
            0.24228645268252244,
            0.24228645268252244,
            0.24228645268252244,
            1.0
          ],
          "glossinessFactor": 0.7150467506186686,
          "specularFactor": [
            0.9676219965622752,
            0.9676219965622752,
            0.9676219965622752
          ]
        }
      },
      "name": "lambert2SG"
    }
  ],
  "meshes": [
    {
      "name": "Object_0",
      "primitives": [
        {
          "attributes": {
            "NORMAL": 1,
            "POSITION": 0
          },
          "indices": 2,
          "material": 0,
          "mode": 4
        }
      ]
    },
    {
      "name": "Object_1",
      "primitives": [
        {
          "attributes": {
            "NORMAL": 4,
            "POSITION": 3,
            "TEXCOORD_0": 5
          },
          "indices": 6,
          "material": 0,
          "mode": 4
        }
      ]
    }
  ],
  "nodes": [
    {
      "children": [
        1
      ],
      "matrix": [
        1.0,
        0.0,
        0.0,
        0.0,
        0.0,
        2.220446049250313e-16,
        -1.0,
        0.0,
        0.0,
        1.0,
        2.220446049250313e-16,
        0.0,
        0.0,
        0.0,
        0.0,
        1.0
      ],
      "name": "Sketchfab_model"
    },
    {
      "children": [
        2,
        3
      ],
      "name": "7d840c70a9e548d2b2cc0df808e3d6e6.obj.cleaner.materialmerger.gles"
    },
    {
      "mesh": 0,
      "name": "Object_2"
    },
    {
      "mesh": 1,
      "name": "Object_3"
    }
  ],
  "scene": 0,
  "scenes": [
    {
      "name": "Sketchfab_Scene",
      "nodes": [
        0
      ]
    }
  ]
}
